<svg xmlns="http://www.w3.org/2000/svg" xmlns:xlink="http://www.w3.org/1999/xlink" width="400" height="175" viewBox="0 100 400 200">
<rect data-name="background" width="100%" height="100%" fill="#4fa3f3"/><g data-name="icon" fill="#304b6d" data="id:6786917" transform="translate(20.427348242997457,163.58218424026018) scale(0.7283486189451225)">
    
 <path d="m95.562 88.938c-1.1641 1.7266-3.1094 2.7578-5.1875 2.75h-80.75c-2.0742 0.003906-4.0156-1.0195-5.1797-2.7383-1.1641-1.7148-1.4023-3.8984-0.63281-5.8242l3.1562-7.9375c1.4102-3.5781 4.8711-5.9219 8.7188-5.9062h68.625c3.8477-0.015625 7.3086 2.3281 8.7188 5.9062l3.1562 7.9375c0.77734 1.9219 0.54297 4.1016-0.625 5.8125zm-26.375-32.5c-0.003906-3.5-2.8398-6.3398-6.3438-6.3438h-25.688c-3.5039 0.003906-6.3398 2.8438-6.3438 6.3438v6.5938h38.375zm-19.188-19.379c1.7266 0 3.125-1.4023 3.125-3.125v-22.496c0-1.7266-1.3984-3.125-3.125-3.125s-3.125 1.3984-3.125 3.125v22.496c0 1.7227 1.3984 3.125 3.125 3.125zm-25.484 4.7305c1.2188 1.2188 3.1992 1.2188 4.418 0s1.2188-3.1992 0-4.418l-15.906-15.91c-1.2227-1.2148-3.1992-1.2148-4.418 0.003906s-1.2188 3.1953 0 4.418zm48.762 0.91406c0.82812 0.003906 1.6211-0.32812 2.207-0.91406l15.906-15.906c0.59375-0.58594 0.92578-1.3828 0.92969-2.2148 0-0.83203-0.32812-1.6289-0.91797-2.2148-0.58594-0.58984-1.3828-0.91797-2.2148-0.91797-0.83203 0.003906-1.6289 0.33594-2.2148 0.92578l-15.906 15.906v0.003906c-0.89453 0.89453-1.1602 2.2383-0.67578 3.4023 0.48047 1.168 1.6211 1.9297 2.8867 1.9297z"/>

    </g><g data-name="business_name" fill="#ffffff" data="id:223" transform="translate(115.47454444939352,135.0245092396503) scale(2.266499019423212)"><path d="M34.12,35.88c0.24,1.4,0.6,2.96,0.6,4.2c0,1.28-0.88,2.92-1.92,2.92c-2.16,0-2.64-8.8-2.64-12.16c0-2.48,0.56-5.6,0.6-8.16c-3.16,4.2-8.36,19.4-14,19.4c-2,0-3.4-1.84-4.52-3.36c-1.92-2.6-3.6-5.64-4.88-8.44c-0.16,2.2-0.04,3.04-0.04,3.84c0,2.44-0.24,5-1.44,7.16c-0.4,0.72-1.12,1.16-1.96,1.16c-0.52,0-1.72-0.2-1.72-0.96c0.12-1,0.36-1.92,0.64-2.76c1.08-3.2,1.84-7.52,2.2-11.12c0-0.36,0-0.76,0.2-1.12c-0.92-3.08-5-7.24-5.08-8c-0.12-0.44,0.88-0.04,1,0c4.24,2.76,6.4,7.84,10.2,14.84l0-0.04c1.12,1.92,2.92,5.6,4.84,5.6c1.96-0.16,5.36-7,8.04-12.04c1.84-3.48,7.56-13.84,11.76-13.84c0.24,0,0.48,0.16,0.48,0.52c0,0.6-0.36,1.2-0.68,1.8c-0.76,1.16-1.44,2.48-3.2,4.76c0.24,5.88,0.68,12.36,1.52,15.8z M36.76,31.68c0-2.56,3.28-1.72,2.96,0c-0.4,1.96-0.88,6.32,0.04,6.32c0.6,0,1.96-3.92,2.2-5.04c0.28-1.04,1.76-0.68,1.44,0.28c-0.28,1-1.84,7.52-4.68,6.72c-2.92-0.84-1.96-4.88-1.96-8.28z M41.32,26.2c0.2,1.16-1.12,2.08-2.48,2.28c-1.32,0.16-2.88-0.24-3.04-1.36c-0.2-1.16,0.88-2.04,2.4-2.32c1.52-0.24,2.96,0.28,3.12,1.4z M42.08,30.52c0.44-2.32,3.68-2.72,3.4-1.48c-0.32,1.48-0.88,5.56-0.84,6.68c0.4-1.48,1.36-3.4,1.96-4.16c0.8-1.12,3.4-1.2,2.88,0.24c-0.12,0.32-0.24,1.32-0.32,2.4c0.68-1.52,2.24-3.76,2.72-4.44c0.8-1.12,3.28-1.4,3.12,0.2c-0.08,1.08-1.48,7.92-0.92,7.92c0.68,0,2.24-3.48,2.64-4.88c0.28-0.92,1.6-0.72,1.36,0.28c-0.36,1.44-2.32,6.12-4.36,6.48c-3.36,0.68-2.24-5.76-1.84-6.96c-0.52,0.24-2.4,4.16-2.68,4.92l0-0.04c-0.16,0.64-1.96,1.84-2.28,0.8c-0.36-1.12-0.08-4-0.2-4.32c-0.48,0.24-1.48,3.8-1.68,5.12c-0.16,1.36-3,1.48-2.88-0.12c0.08-1.84-0.44-6.48-0.08-8.64z M63.36,33c-0.8,1.12-2.8,1.48-4,1.56c-0.28,2.24-0.16,4.4,0.88,4.72c2.16,0.64,5-5.24,5.32-6.32c0.28-0.92,1.6-0.68,1.36,0.28c-0.28,1.04-2.12,7.88-7,7.88c-5.8,0-3.48-13.56,0.48-13.56c2.6,0,4,4.04,2.96,5.44z M60.88,29.44c-0.36,0.16-0.84,1.52-1.2,3.2c0.6,0,1.24-0.12,1.52-0.52c0.44-0.6,0.12-2.88-0.32-2.68z M71.68,29.52c1.44-0.8,3.08,2,1.2,2.56c-1.72,0.44-3.96,0.88-4.28,0.92c0.24,0.04,4.84,1,4.84,4.4c0,1.88-1.48,2.96-3.2,3.32c-2.08,0.36-4.16-0.68-4.16-3.12c0-2.04,3.24-2.4,3-0.8c-0.24,1.64,0.32,2.36,0.76,2.36c1.12,0,1.36-1.64,0.16-3.24c-1-1.36-3-2.24-3.88-2.4c-0.92-0.2-1.12-2.6,0.52-2.6c1.6,0,3.6-0.56,5.04-1.4z M79.96,31.2c0.2-1.8,3.44-1.84,3.2-0.92c-0.8,2.96,0.16,7.28,1.08,7.28c0.96,0,1.48-6.2,1.52-7.32s1.84-1.08,1.76,0c-0.12,1-0.52,9.36-4.08,9.52c-1.12,0.08-1.96-0.52-2.52-1.52c-0.72,1.48-1.68,2.56-2.92,2.64c-3,0.12-3.48-6.24-3-10.44c0.24-1.8,3.48-1.88,3.2-0.88c-0.76,2.92-0.32,9.12,0.6,9.12c0.4,0,0.88-1.24,1.28-2.72c-0.28-1.44-0.32-3.12-0.12-4.76z  M96.08,33c-0.8,1.12-2.8,1.48-4,1.56c-0.28,2.24-0.16,4.4,0.88,4.72c2.16,0.64,5-5.24,5.32-6.32c0.28-0.92,1.6-0.68,1.36,0.28c-0.28,1.04-2.12,7.88-7,7.88c-5.8,0-3.48-13.56,0.48-13.56c2.6,0,4,4.04,2.96,5.44z M93.6,29.44c-0.36,0.16-0.84,1.52-1.2,3.2c0.6,0,1.24-0.12,1.52-0.52c0.44-0.6,0.12-2.88-0.32-2.68z M104.92,33c-0.8,1.12-2.8,1.48-4,1.56c-0.28,2.24-0.16,4.4,0.88,4.72c2.16,0.64,5-5.24,5.32-6.32c0.28-0.92,1.6-0.68,1.36,0.28c-0.28,1.04-2.12,7.88-7,7.88c-5.8,0-3.48-13.56,0.48-13.56c2.6,0,4,4.04,2.96,5.44z M102.44,29.44c-0.36,0.16-0.84,1.52-1.2,3.2c0.6,0,1.24-0.12,1.52-0.52c0.44-0.6,0.12-2.88-0.32-2.68z M107.2,28.4c0-2,3.32-2.64,3.08-1.28c-0.12,0.56-0.2,1.56-0.28,2.8c0.52-0.52,1.4-1.04,2.36-1c4.92,0.4,3.44,10.6-0.88,10.28c-0.48,0-0.96-0.16-1.44-0.48c-0.16-0.12-0.32-0.2-0.48-0.36c-0.08,2.08-0.12,3.96-0.12,5.04c0,1.2-2.92,1.28-2.76,0.04c0.36-3.2,0.52-13.64,0.52-15.04z M110.4,31.76c-1,2.24-0.68,5.48,0.64,5.72c1.64,0.28,2.48-6.72,0.76-6.88c-0.56-0.04-1.08,0.52-1.4,1.16z"/></g></svg>